<svg width="23" height="23" viewBox="0 0 23 23" fill="none" xmlns="http://www.w3.org/2000/svg">
<path fill-rule="evenodd" clip-rule="evenodd" d="M22.0587 2.9501V20.2819C22.0587 21.5867 21.0001 22.6453 19.6952 22.6453H15.4952V13.9203H18.4791L18.9074 10.5919H15.4952V8.46477C15.4952 7.4997 15.7611 6.84483 17.1447 6.84483H18.9074V3.87085C18.6022 3.83146 17.5583 3.73791 16.3372 3.73791C13.7965 3.73791 12.0535 5.28891 12.0535 8.13979V10.5968H9.05981V13.9253H12.0584V22.6453H2.36343C1.05862 22.6453 0 21.5867 0 20.2819V2.9501C0 1.64529 1.05862 0.58667 2.36343 0.58667H19.6952C21.0001 0.58667 22.0587 1.64529 22.0587 2.9501Z" fill="#8417B8"/>
</svg>
