<svg width="23" height="23" viewBox="0 0 23 23" fill="none" xmlns="http://www.w3.org/2000/svg">
<path fill-rule="evenodd" clip-rule="evenodd" d="M11.6763 5.51953C8.46263 5.51953 5.87045 8.11171 5.87045 11.3254C5.87045 14.5391 8.46263 17.1313 11.6763 17.1313C14.89 17.1313 17.4822 14.5391 17.4822 11.3254C17.4822 8.11171 14.89 5.51953 11.6763 5.51953ZM11.678 15.0987C9.60125 15.0987 7.90345 13.4059 7.90345 11.3241C7.90345 9.24226 9.5962 7.54951 11.678 7.54951C13.7599 7.54951 15.4526 9.24226 15.4526 11.3241C15.4526 13.4059 13.7548 15.0987 11.678 15.0987ZM19.0738 5.2812C19.0738 6.0341 18.4675 6.6354 17.7196 6.6354C16.9667 6.6354 16.3654 6.02905 16.3654 5.2812C16.3654 4.53336 16.9718 3.92701 17.7196 3.92701C18.4675 3.92701 19.0738 4.53336 19.0738 5.2812ZM22.9204 6.65327C22.8345 4.83925 22.4201 3.2324 21.0912 1.90852C19.7673 0.584638 18.1605 0.170294 16.3464 0.0793403C14.4768 -0.0267723 8.87309 -0.0267723 7.00349 0.0793403C5.19452 0.165241 3.58767 0.579585 2.25874 1.90347C0.929805 3.22735 0.520514 4.83419 0.42956 6.64821C0.323447 8.51782 0.323447 14.1216 0.42956 15.9912C0.515461 17.8052 0.929805 19.412 2.25874 20.7359C3.58767 22.0598 5.18947 22.4741 7.00349 22.5651C8.87309 22.6712 14.4768 22.6712 16.3464 22.5651C18.1605 22.4792 19.7673 22.0649 21.0912 20.7359C22.4151 19.412 22.8294 17.8052 22.9204 15.9912C23.0265 14.1216 23.0265 8.52287 22.9204 6.65327ZM20.5044 17.9991C20.1102 18.9894 19.3472 19.7524 18.3518 20.1516C16.8612 20.7428 13.3241 20.6064 11.6768 20.6064C10.0295 20.6064 6.4874 20.7378 5.00182 20.1516C4.01144 19.7575 3.24844 18.9945 2.84925 17.9991C2.25805 16.5084 2.39448 12.9713 2.39448 11.3241C2.39448 9.67679 2.2631 6.13465 2.84925 4.64908C3.24338 3.65869 4.00638 2.89569 5.00182 2.49651C6.49245 1.90531 10.0295 2.04174 11.6768 2.04174C13.3241 2.04174 16.8662 1.91036 18.3518 2.49651C19.3422 2.89064 20.1052 3.65364 20.5044 4.64908C21.0956 6.13971 20.9591 9.67679 20.9591 11.3241C20.9591 12.9713 21.0956 16.5135 20.5044 17.9991Z" fill="#8417B8"/>
</svg>
