<svg width="29" height="24" viewBox="0 0 29 24" fill="none" xmlns="http://www.w3.org/2000/svg">
<path fill-rule="evenodd" clip-rule="evenodd" d="M25.7525 6.21755C25.7702 6.46466 25.7702 6.71183 25.7702 6.95894C25.7702 14.4962 20.0334 23.1809 9.54823 23.1809C6.31795 23.1809 3.31718 22.2453 0.792969 20.6214C1.25193 20.6743 1.69318 20.692 2.1698 20.692C4.83517 20.692 7.2888 19.7918 9.24815 18.2561C6.7416 18.2031 4.64103 16.5615 3.9173 14.3021C4.27036 14.355 4.62337 14.3903 4.9941 14.3903C5.50598 14.3903 6.01792 14.3197 6.49448 14.1962C3.88204 13.6666 1.92263 11.3719 1.92263 8.60054V8.52996C2.68163 8.95361 3.56429 9.21838 4.49976 9.25364C2.96406 8.22982 1.95795 6.48232 1.95795 4.50531C1.95795 3.44623 2.24033 2.47538 2.7346 1.6281C5.54124 5.08783 9.76003 7.34721 14.4906 7.59438C14.4024 7.17074 14.3494 6.72949 14.3494 6.28818C14.3494 3.14614 16.8913 0.58667 20.0509 0.58667C21.6925 0.58667 23.1753 1.27509 24.2168 2.38715C25.5053 2.14003 26.7409 1.66341 27.8354 1.01031C27.4117 2.33422 26.5115 3.44628 25.3288 4.1523C26.4762 4.0288 27.5883 3.711 28.612 3.26975C27.8355 4.39942 26.8646 5.40552 25.7525 6.21755Z" fill="#8417B8"/>
</svg>
